<svg xmlns="http://www.w3.org/2000/svg" viewBox="0 0 64 64" fill="none">
  <defs>
    <linearGradient id="top" x1="0%" y1="0%" x2="100%" y2="100%">
      <stop offset="0%" stop-color="#e9ddff" />
      <stop offset="100%" stop-color="#d0bcff" />
    </linearGradient>
    <linearGradient id="right" x1="0%" y1="0%" x2="0%" y2="100%">
      <stop offset="0%" stop-color="#a078ff" />
      <stop offset="100%" stop-color="#5516be" />
    </linearGradient>
    <linearGradient id="left" x1="0%" y1="0%" x2="0%" y2="100%">
      <stop offset="0%" stop-color="#8B5CF6" />
      <stop offset="100%" stop-color="#23005c" />
    </linearGradient>
    <linearGradient id="halo" x1="0%" y1="0%" x2="100%" y2="100%">
      <stop offset="0%" stop-color="#d0bcff" />
      <stop offset="100%" stop-color="#5516be" />
    </linearGradient>
  </defs>

  <rect width="64" height="64" rx="14" fill="#0A0A0A" />
  <circle cx="32" cy="34" r="20" fill="url(#halo)" opacity="0.15" filter="blur(4px)" />

  <g stroke-linejoin="round" stroke-linecap="round">
    <path d="M32 14 L50 24 L32 34 L14 24 Z" fill="url(#top)" />
    <path d="M50 24 V44 L32 54 V34 Z" fill="url(#right)" />
    <path d="M14 24 L32 34 V54 L14 44 Z" fill="url(#left)" />
    <path d="M32 14 L50 24 V44 L32 54 L14 44 V24 Z" stroke="#a078ff" stroke-width="2" />
    <path d="M32 14 L50 24 L32 34 M14 24 L32 34 M32 34 V54" stroke="#ffffff" stroke-opacity="0.4" stroke-width="1.5" />
    
    <circle cx="32" cy="34" r="2.5" fill="#ffffff" />
    <circle cx="32" cy="14" r="1.5" fill="#ffffff" />
    <circle cx="50" cy="24" r="1.5" fill="#e9ddff" />
    <circle cx="14" cy="24" r="1.5" fill="#e9ddff" />
  </g>
</svg>
